{"title":"Endeavour S03E01 - Ride x264 RB58.mp4","uid":13164842,"size":1013149361,"categoryP":"video","categoryS":"tv_shows","magnet":"?xt=urn:btih:c3e8be59dc8715fb255b10190a0ccd3bfe6110da&amp;dn=Endeavour+S03E01+-+Ride+x264+RB58.mp4&amp;tr=udp%3A%2F%2Ftracker.leechers-paradise.org%3A6969&amp;tr=udp%3A%2F%2Fzer0day.ch%3A1337&amp;tr=udp%3A%2F%2Fopen.demonii.com%3A1337&amp;tr=udp%3A%2F%2Ftracker.coppersurfer.tk%3A6969&amp;tr=udp%3A%2F%2Fexodus.desync.com%3A6969","seeders":1,"leechers":0,"uploader":"RedBaron58","files":1,"time":1452193992,"description":"Endeavour S03E01 - Ride x264 mp4\r\n \nhttp://www.imdb.com/title/tt2701582/\r\n\r\nTrailer:\r\n\r\n\r\nPlease be patient My intial upload speed is limited.\r\nThank you for your kind comments and feedback on my other torrents, your feedback is welcome.\r\n\r\n\r\nAbout the Episode:\r\nThe young detective is suspended from duty following a recent case. However, he is roused from \r\nhis bitterness and self-pity when the body of a woman who went missing at a funfair on Cowley Green \r\nis found near his home. \r\nHe resolves to conduct a secret investigation of his own, which leads him to the city's social elite \r\nand a disturbing secret hidden in plain sight. Shaun Evans stars as the young Inspector Morse in \r\nthe third series of the detective drama\r\n\r\n\r\nI hope you enjoy.\r\n\r\n\r\nTechnical:\r\n\r\nGeneral\r\nComplete name                            : G:Endeavour S03E01 - Ride x264 RB58.mp4\r\nFormat                                   : MPEG-4\r\nFormat profile                           : Base Media\r\nCodec ID                                 : isom\r\nFile size                                : 966 MiB\r\nDuration                                 : 1h 28mn\r\nOverall bit rate                         : 1 523 Kbps\r\nWriting application                      : Lavf54.63.104\r\n\r\nVideo\r\nID                                       : 1\r\nFormat                                   : AVC\r\nFormat/Info                              : Advanced Video Codec\r\nFormat profile                           :   \r\nFormat settings, CABAC                   : Yes\r\nFormat settings, ReFrames                : 4 frames\r\nCodec ID                                 : avc1\r\nCodec ID/Info                            : Advanced Video Coding\r\nDuration                                 : 1h 28mn\r\nBit rate                                 : 1 400 Kbps\r\nWidth                                    : 832 pixels\r\nHeight                                   : 468 pixels\r\nDisplay aspect ratio                     : 16:9\r\nFrame rate mode                          : Constant\r\nFrame rate                               : 25.000 fps\r\nColor space                              : YUV\r\nChroma subsampling                       : 4:2:0\r\nBit depth                                : 8 bits\r\nScan type                                : Progressive\r\nBits/(Pixel*Frame)                       : 0.144\r\nStream size                              : 888 MiB (92%)\r\nWriting library                          : x264 core 123 r2189 35cf912\r\nEncoding settings                        : cabac=1 / ref=3 / deblock=1:0:0\r\n\r\nAudio\r\nID                                       : 2\r\nFormat                                   : AAC\r\nFormat/Info                              : Advanced Audio Codec\r\nFormat profile                           : LC\r\nCodec ID                                 : 40\r\nDuration                                 : 1h 28mn\r\nBit rate mode                            : Constant\r\nBit rate                                 : 115 Kbps\r\nChannel(s)                               : 2 channels\r\nChannel positions                        : Front: L R\r\nSampling rate                            : 48.0 KHz\r\nCompression mode                         : Lossy\r\nStream size                              : 72.7 MiB (8%)","torrent":{"xt":"urn:btih:c3e8be59dc8715fb255b10190a0ccd3bfe6110da","amp;dn":"Endeavour+S03E01+-+Ride+x264+RB58.mp4","amp;tr":["udp%3A%2F%2Ftracker.leechers-paradise.org%3A6969","udp%3A%2F%2Fzer0day.ch%3A1337","udp%3A%2F%2Fopen.demonii.com%3A1337","udp%3A%2F%2Ftracker.coppersurfer.tk%3A6969","udp%3A%2F%2Fexodus.desync.com%3A6969"],"infoHash":"c3e8be59dc8715fb255b10190a0ccd3bfe6110da","infoHashBuffer":{"type":"Buffer","data":[195,232,190,89,220,135,21,251,37,91,16,25,10,12,205,59,254,97,16,218]},"announce":[],"urlList":[]}}